G04 EAGLE Gerber RS-274X export*
G75*
%MOMM*%
%FSLAX34Y34*%
%LPD*%
%INBottom Soldermask*%
%IPPOS*%
%AMOC8*
5,1,8,0,0,1.08239X$1,22.5*%
G01*
%ADD10C,1.203200*%
%ADD11P,1.649562X8X202.500000*%
%ADD12C,1.625600*%
%ADD13R,1.625600X1.625600*%
%ADD14C,1.524000*%
%ADD15P,1.649562X8X22.500000*%
%ADD16P,1.429621X8X112.500000*%
%ADD17P,1.759533X8X292.500000*%
%ADD18P,1.759533X8X112.500000*%
%ADD19C,1.625600*%
%ADD20C,1.853200*%
%ADD21C,0.959600*%

G36*
X31050Y209250D02*
X31050Y209250D01*
X31071Y209248D01*
X32762Y209400D01*
X32808Y209413D01*
X32884Y209423D01*
X34513Y209902D01*
X34541Y209916D01*
X34562Y209920D01*
X34587Y209934D01*
X34628Y209949D01*
X36132Y210736D01*
X36171Y210765D01*
X36236Y210804D01*
X37558Y211870D01*
X37590Y211906D01*
X37647Y211957D01*
X38736Y213260D01*
X38759Y213301D01*
X38806Y213362D01*
X39619Y214853D01*
X39634Y214898D01*
X39668Y214967D01*
X40175Y216587D01*
X40181Y216635D01*
X40200Y216709D01*
X40381Y218392D01*
X40406Y218590D01*
X40403Y218641D01*
X40407Y218732D01*
X40234Y220441D01*
X40221Y220487D01*
X40209Y220563D01*
X39706Y222205D01*
X39684Y222248D01*
X39658Y222320D01*
X38844Y223833D01*
X38814Y223870D01*
X38774Y223936D01*
X37681Y225260D01*
X37644Y225292D01*
X37593Y225348D01*
X36262Y226434D01*
X36219Y226457D01*
X36158Y226503D01*
X34641Y227308D01*
X34595Y227323D01*
X34526Y227355D01*
X33673Y227611D01*
X32880Y227849D01*
X32833Y227855D01*
X32758Y227873D01*
X31171Y228025D01*
X31154Y228032D01*
X31060Y228073D01*
X31050Y228073D01*
X31042Y228077D01*
X30855Y228088D01*
X29176Y227935D01*
X29129Y227922D01*
X29054Y227912D01*
X27437Y227434D01*
X27394Y227413D01*
X27322Y227388D01*
X25830Y226604D01*
X25792Y226574D01*
X25726Y226536D01*
X24415Y225476D01*
X24384Y225440D01*
X24327Y225389D01*
X23248Y224094D01*
X23224Y224052D01*
X23178Y223991D01*
X22372Y222510D01*
X22357Y222465D01*
X22324Y222396D01*
X21823Y220787D01*
X21817Y220739D01*
X21798Y220665D01*
X21623Y219012D01*
X21576Y218756D01*
X21576Y218734D01*
X21569Y218574D01*
X21754Y216857D01*
X21767Y216810D01*
X21779Y216735D01*
X22295Y215086D01*
X22317Y215043D01*
X22343Y214972D01*
X23171Y213455D01*
X23201Y213417D01*
X23241Y213352D01*
X24349Y212026D01*
X24385Y211995D01*
X24437Y211939D01*
X25782Y210855D01*
X25824Y210832D01*
X25886Y210786D01*
X27417Y209985D01*
X27463Y209971D01*
X27532Y209939D01*
X29189Y209451D01*
X29237Y209446D01*
X29312Y209428D01*
X30780Y209296D01*
X30808Y209280D01*
X30847Y209274D01*
X30884Y209259D01*
X30980Y209254D01*
X31030Y209246D01*
X31050Y209250D01*
G37*
G36*
X96125Y209225D02*
X96125Y209225D01*
X96146Y209223D01*
X97837Y209375D01*
X97883Y209388D01*
X97959Y209398D01*
X99588Y209877D01*
X99616Y209891D01*
X99637Y209895D01*
X99662Y209909D01*
X99703Y209924D01*
X101207Y210711D01*
X101246Y210740D01*
X101311Y210779D01*
X102633Y211845D01*
X102665Y211881D01*
X102722Y211932D01*
X103811Y213235D01*
X103834Y213276D01*
X103881Y213337D01*
X104694Y214828D01*
X104709Y214873D01*
X104743Y214942D01*
X105250Y216562D01*
X105256Y216610D01*
X105275Y216684D01*
X105456Y218367D01*
X105481Y218565D01*
X105478Y218616D01*
X105482Y218707D01*
X105309Y220416D01*
X105296Y220462D01*
X105284Y220538D01*
X104781Y222180D01*
X104759Y222223D01*
X104733Y222295D01*
X103919Y223808D01*
X103889Y223845D01*
X103849Y223911D01*
X102756Y225235D01*
X102719Y225267D01*
X102668Y225323D01*
X101337Y226409D01*
X101294Y226432D01*
X101233Y226478D01*
X99716Y227283D01*
X99670Y227298D01*
X99601Y227330D01*
X98748Y227586D01*
X97955Y227824D01*
X97908Y227830D01*
X97833Y227848D01*
X96246Y228000D01*
X96229Y228007D01*
X96135Y228048D01*
X96125Y228048D01*
X96117Y228052D01*
X95930Y228063D01*
X94251Y227910D01*
X94204Y227897D01*
X94129Y227887D01*
X92512Y227409D01*
X92469Y227388D01*
X92397Y227363D01*
X90905Y226579D01*
X90867Y226549D01*
X90801Y226511D01*
X89490Y225451D01*
X89459Y225415D01*
X89402Y225364D01*
X88323Y224069D01*
X88299Y224027D01*
X88253Y223966D01*
X87447Y222485D01*
X87432Y222440D01*
X87399Y222371D01*
X86898Y220762D01*
X86892Y220714D01*
X86873Y220640D01*
X86698Y218987D01*
X86651Y218731D01*
X86651Y218709D01*
X86644Y218549D01*
X86829Y216832D01*
X86842Y216785D01*
X86854Y216710D01*
X87370Y215061D01*
X87392Y215018D01*
X87418Y214947D01*
X88246Y213430D01*
X88276Y213392D01*
X88316Y213327D01*
X89424Y212001D01*
X89460Y211970D01*
X89512Y211914D01*
X90857Y210830D01*
X90899Y210807D01*
X90961Y210761D01*
X92492Y209960D01*
X92538Y209946D01*
X92607Y209914D01*
X94264Y209426D01*
X94312Y209421D01*
X94387Y209403D01*
X95855Y209271D01*
X95883Y209255D01*
X95922Y209249D01*
X95959Y209234D01*
X96055Y209229D01*
X96105Y209221D01*
X96125Y209225D01*
G37*
G36*
X31050Y254488D02*
X31050Y254488D01*
X31071Y254486D01*
X32762Y254638D01*
X32808Y254651D01*
X32884Y254661D01*
X34513Y255140D01*
X34541Y255154D01*
X34562Y255158D01*
X34587Y255172D01*
X34628Y255187D01*
X36132Y255974D01*
X36171Y256003D01*
X36236Y256042D01*
X37558Y257108D01*
X37590Y257144D01*
X37647Y257195D01*
X38736Y258498D01*
X38759Y258539D01*
X38806Y258600D01*
X39619Y260091D01*
X39634Y260136D01*
X39668Y260205D01*
X40175Y261825D01*
X40181Y261873D01*
X40200Y261947D01*
X40381Y263630D01*
X40406Y263828D01*
X40403Y263879D01*
X40407Y263970D01*
X40234Y265679D01*
X40221Y265725D01*
X40209Y265801D01*
X39706Y267443D01*
X39684Y267486D01*
X39658Y267558D01*
X38844Y269071D01*
X38814Y269108D01*
X38774Y269174D01*
X37681Y270498D01*
X37644Y270530D01*
X37593Y270586D01*
X36262Y271672D01*
X36219Y271695D01*
X36158Y271741D01*
X34641Y272546D01*
X34595Y272561D01*
X34526Y272593D01*
X33673Y272849D01*
X32880Y273087D01*
X32833Y273093D01*
X32758Y273111D01*
X31171Y273263D01*
X31154Y273270D01*
X31060Y273311D01*
X31050Y273311D01*
X31042Y273315D01*
X30855Y273326D01*
X29176Y273173D01*
X29129Y273160D01*
X29054Y273150D01*
X27437Y272672D01*
X27394Y272651D01*
X27322Y272626D01*
X25830Y271842D01*
X25792Y271812D01*
X25726Y271774D01*
X24415Y270714D01*
X24384Y270678D01*
X24327Y270627D01*
X23248Y269332D01*
X23224Y269290D01*
X23178Y269229D01*
X22372Y267748D01*
X22357Y267703D01*
X22324Y267634D01*
X21823Y266025D01*
X21817Y265977D01*
X21798Y265903D01*
X21623Y264250D01*
X21576Y263994D01*
X21576Y263972D01*
X21569Y263812D01*
X21754Y262095D01*
X21767Y262048D01*
X21779Y261973D01*
X22295Y260324D01*
X22317Y260281D01*
X22343Y260210D01*
X23171Y258693D01*
X23201Y258655D01*
X23241Y258590D01*
X24349Y257264D01*
X24385Y257233D01*
X24437Y257177D01*
X25782Y256093D01*
X25824Y256070D01*
X25886Y256024D01*
X27417Y255223D01*
X27463Y255209D01*
X27532Y255177D01*
X29189Y254689D01*
X29237Y254684D01*
X29312Y254666D01*
X30780Y254534D01*
X30808Y254518D01*
X30847Y254512D01*
X30884Y254497D01*
X30980Y254492D01*
X31030Y254484D01*
X31050Y254488D01*
G37*
G36*
X259650Y254488D02*
X259650Y254488D01*
X259671Y254486D01*
X261362Y254638D01*
X261408Y254651D01*
X261484Y254661D01*
X263113Y255140D01*
X263141Y255154D01*
X263162Y255158D01*
X263187Y255172D01*
X263228Y255187D01*
X264732Y255974D01*
X264771Y256003D01*
X264836Y256042D01*
X266158Y257108D01*
X266190Y257144D01*
X266247Y257195D01*
X267336Y258498D01*
X267359Y258539D01*
X267406Y258600D01*
X268219Y260091D01*
X268234Y260136D01*
X268268Y260205D01*
X268775Y261825D01*
X268781Y261873D01*
X268800Y261947D01*
X268981Y263630D01*
X269006Y263828D01*
X269003Y263879D01*
X269007Y263970D01*
X268834Y265679D01*
X268821Y265725D01*
X268809Y265801D01*
X268306Y267443D01*
X268284Y267486D01*
X268258Y267558D01*
X267444Y269071D01*
X267414Y269108D01*
X267374Y269174D01*
X266281Y270498D01*
X266244Y270530D01*
X266193Y270586D01*
X264862Y271672D01*
X264819Y271695D01*
X264758Y271741D01*
X263241Y272546D01*
X263195Y272561D01*
X263126Y272593D01*
X262273Y272849D01*
X261480Y273087D01*
X261433Y273093D01*
X261358Y273111D01*
X259771Y273263D01*
X259754Y273270D01*
X259660Y273311D01*
X259650Y273311D01*
X259642Y273315D01*
X259455Y273326D01*
X257776Y273173D01*
X257729Y273160D01*
X257654Y273150D01*
X256037Y272672D01*
X255994Y272651D01*
X255922Y272626D01*
X254430Y271842D01*
X254392Y271812D01*
X254326Y271774D01*
X253015Y270714D01*
X252984Y270678D01*
X252927Y270627D01*
X251848Y269332D01*
X251824Y269290D01*
X251778Y269229D01*
X250972Y267748D01*
X250957Y267703D01*
X250924Y267634D01*
X250423Y266025D01*
X250417Y265977D01*
X250398Y265903D01*
X250223Y264250D01*
X250176Y263994D01*
X250176Y263972D01*
X250169Y263812D01*
X250354Y262095D01*
X250367Y262048D01*
X250379Y261973D01*
X250895Y260324D01*
X250917Y260281D01*
X250943Y260210D01*
X251771Y258693D01*
X251801Y258655D01*
X251841Y258590D01*
X252949Y257264D01*
X252985Y257233D01*
X253037Y257177D01*
X254382Y256093D01*
X254424Y256070D01*
X254486Y256024D01*
X256017Y255223D01*
X256063Y255209D01*
X256132Y255177D01*
X257789Y254689D01*
X257837Y254684D01*
X257912Y254666D01*
X259380Y254534D01*
X259408Y254518D01*
X259447Y254512D01*
X259484Y254497D01*
X259580Y254492D01*
X259630Y254484D01*
X259650Y254488D01*
G37*
G36*
X324725Y209225D02*
X324725Y209225D01*
X324746Y209223D01*
X326437Y209375D01*
X326483Y209388D01*
X326559Y209398D01*
X328188Y209877D01*
X328216Y209891D01*
X328237Y209895D01*
X328262Y209909D01*
X328303Y209924D01*
X329807Y210711D01*
X329846Y210740D01*
X329911Y210779D01*
X331233Y211845D01*
X331265Y211881D01*
X331322Y211932D01*
X332411Y213235D01*
X332434Y213276D01*
X332481Y213337D01*
X333294Y214828D01*
X333309Y214873D01*
X333343Y214942D01*
X333850Y216562D01*
X333856Y216610D01*
X333875Y216684D01*
X334056Y218367D01*
X334081Y218565D01*
X334078Y218616D01*
X334082Y218707D01*
X333909Y220416D01*
X333896Y220462D01*
X333884Y220538D01*
X333381Y222180D01*
X333359Y222223D01*
X333333Y222295D01*
X332519Y223808D01*
X332489Y223845D01*
X332449Y223911D01*
X331356Y225235D01*
X331319Y225267D01*
X331268Y225323D01*
X329937Y226409D01*
X329894Y226432D01*
X329833Y226478D01*
X328316Y227283D01*
X328270Y227298D01*
X328201Y227330D01*
X327348Y227586D01*
X326555Y227824D01*
X326508Y227830D01*
X326433Y227848D01*
X324846Y228000D01*
X324829Y228007D01*
X324735Y228048D01*
X324725Y228048D01*
X324717Y228052D01*
X324530Y228063D01*
X322851Y227910D01*
X322804Y227897D01*
X322729Y227887D01*
X321112Y227409D01*
X321069Y227388D01*
X320997Y227363D01*
X319505Y226579D01*
X319467Y226549D01*
X319401Y226511D01*
X318090Y225451D01*
X318059Y225415D01*
X318002Y225364D01*
X316923Y224069D01*
X316899Y224027D01*
X316853Y223966D01*
X316047Y222485D01*
X316032Y222440D01*
X315999Y222371D01*
X315498Y220762D01*
X315492Y220714D01*
X315473Y220640D01*
X315298Y218987D01*
X315251Y218731D01*
X315251Y218709D01*
X315244Y218549D01*
X315429Y216832D01*
X315442Y216785D01*
X315454Y216710D01*
X315970Y215061D01*
X315992Y215018D01*
X316018Y214947D01*
X316846Y213430D01*
X316876Y213392D01*
X316916Y213327D01*
X318024Y212001D01*
X318060Y211970D01*
X318112Y211914D01*
X319457Y210830D01*
X319499Y210807D01*
X319561Y210761D01*
X321092Y209960D01*
X321138Y209946D01*
X321207Y209914D01*
X322864Y209426D01*
X322912Y209421D01*
X322987Y209403D01*
X324455Y209271D01*
X324483Y209255D01*
X324522Y209249D01*
X324559Y209234D01*
X324655Y209229D01*
X324705Y209221D01*
X324725Y209225D01*
G37*
G36*
X259650Y209250D02*
X259650Y209250D01*
X259671Y209248D01*
X261362Y209400D01*
X261408Y209413D01*
X261484Y209423D01*
X263113Y209902D01*
X263141Y209916D01*
X263162Y209920D01*
X263187Y209934D01*
X263228Y209949D01*
X264732Y210736D01*
X264771Y210765D01*
X264836Y210804D01*
X266158Y211870D01*
X266190Y211906D01*
X266247Y211957D01*
X267336Y213260D01*
X267359Y213301D01*
X267406Y213362D01*
X268219Y214853D01*
X268234Y214898D01*
X268268Y214967D01*
X268775Y216587D01*
X268781Y216635D01*
X268800Y216709D01*
X268981Y218392D01*
X269006Y218590D01*
X269003Y218641D01*
X269007Y218732D01*
X268834Y220441D01*
X268821Y220487D01*
X268809Y220563D01*
X268306Y222205D01*
X268284Y222248D01*
X268258Y222320D01*
X267444Y223833D01*
X267414Y223870D01*
X267374Y223936D01*
X266281Y225260D01*
X266244Y225292D01*
X266193Y225348D01*
X264862Y226434D01*
X264819Y226457D01*
X264758Y226503D01*
X263241Y227308D01*
X263195Y227323D01*
X263126Y227355D01*
X262273Y227611D01*
X261480Y227849D01*
X261433Y227855D01*
X261358Y227873D01*
X259771Y228025D01*
X259754Y228032D01*
X259660Y228073D01*
X259650Y228073D01*
X259642Y228077D01*
X259455Y228088D01*
X257776Y227935D01*
X257729Y227922D01*
X257654Y227912D01*
X256037Y227434D01*
X255994Y227413D01*
X255922Y227388D01*
X254430Y226604D01*
X254392Y226574D01*
X254326Y226536D01*
X253015Y225476D01*
X252984Y225440D01*
X252927Y225389D01*
X251848Y224094D01*
X251824Y224052D01*
X251778Y223991D01*
X250972Y222510D01*
X250957Y222465D01*
X250924Y222396D01*
X250423Y220787D01*
X250417Y220739D01*
X250398Y220665D01*
X250223Y219012D01*
X250176Y218756D01*
X250176Y218734D01*
X250169Y218574D01*
X250354Y216857D01*
X250367Y216810D01*
X250379Y216735D01*
X250895Y215086D01*
X250917Y215043D01*
X250943Y214972D01*
X251771Y213455D01*
X251801Y213417D01*
X251841Y213352D01*
X252949Y212026D01*
X252985Y211995D01*
X253037Y211939D01*
X254382Y210855D01*
X254424Y210832D01*
X254486Y210786D01*
X256017Y209985D01*
X256063Y209971D01*
X256132Y209939D01*
X257789Y209451D01*
X257837Y209446D01*
X257912Y209428D01*
X259380Y209296D01*
X259408Y209280D01*
X259447Y209274D01*
X259484Y209259D01*
X259580Y209254D01*
X259630Y209246D01*
X259650Y209250D01*
G37*
G36*
X324674Y254513D02*
X324674Y254513D01*
X324695Y254511D01*
X326386Y254663D01*
X326432Y254676D01*
X326508Y254686D01*
X328137Y255165D01*
X328165Y255179D01*
X328186Y255183D01*
X328210Y255197D01*
X328252Y255212D01*
X329756Y255999D01*
X329795Y256028D01*
X329860Y256067D01*
X331182Y257133D01*
X331214Y257169D01*
X331271Y257220D01*
X332360Y258523D01*
X332383Y258564D01*
X332430Y258625D01*
X333243Y260116D01*
X333258Y260161D01*
X333292Y260230D01*
X333799Y261850D01*
X333805Y261898D01*
X333824Y261972D01*
X334005Y263655D01*
X334030Y263853D01*
X334027Y263904D01*
X334031Y263995D01*
X333858Y265704D01*
X333845Y265750D01*
X333833Y265826D01*
X333330Y267468D01*
X333308Y267511D01*
X333282Y267583D01*
X332468Y269096D01*
X332438Y269133D01*
X332398Y269199D01*
X331305Y270523D01*
X331268Y270555D01*
X331217Y270611D01*
X329886Y271697D01*
X329843Y271720D01*
X329782Y271766D01*
X328265Y272571D01*
X328219Y272586D01*
X328150Y272618D01*
X327297Y272874D01*
X326504Y273112D01*
X326457Y273118D01*
X326382Y273136D01*
X324795Y273288D01*
X324778Y273295D01*
X324684Y273336D01*
X324674Y273336D01*
X324666Y273340D01*
X324479Y273351D01*
X322800Y273198D01*
X322753Y273185D01*
X322678Y273175D01*
X321061Y272697D01*
X321018Y272676D01*
X320946Y272651D01*
X319454Y271867D01*
X319416Y271837D01*
X319350Y271799D01*
X318039Y270739D01*
X318008Y270703D01*
X317951Y270652D01*
X316872Y269357D01*
X316848Y269315D01*
X316802Y269254D01*
X315996Y267773D01*
X315981Y267728D01*
X315948Y267659D01*
X315447Y266050D01*
X315441Y266002D01*
X315422Y265928D01*
X315247Y264275D01*
X315200Y264019D01*
X315200Y263997D01*
X315193Y263837D01*
X315378Y262120D01*
X315391Y262073D01*
X315403Y261998D01*
X315919Y260349D01*
X315941Y260306D01*
X315967Y260235D01*
X316795Y258718D01*
X316825Y258680D01*
X316865Y258615D01*
X317973Y257289D01*
X318009Y257258D01*
X318061Y257202D01*
X319406Y256118D01*
X319448Y256095D01*
X319510Y256049D01*
X321041Y255248D01*
X321087Y255234D01*
X321156Y255202D01*
X322813Y254714D01*
X322861Y254709D01*
X322936Y254691D01*
X324404Y254559D01*
X324432Y254543D01*
X324471Y254537D01*
X324508Y254522D01*
X324604Y254517D01*
X324654Y254509D01*
X324674Y254513D01*
G37*
G36*
X96074Y254513D02*
X96074Y254513D01*
X96095Y254511D01*
X97786Y254663D01*
X97832Y254676D01*
X97908Y254686D01*
X99537Y255165D01*
X99565Y255179D01*
X99586Y255183D01*
X99610Y255197D01*
X99652Y255212D01*
X101156Y255999D01*
X101195Y256028D01*
X101260Y256067D01*
X102582Y257133D01*
X102614Y257169D01*
X102671Y257220D01*
X103760Y258523D01*
X103783Y258564D01*
X103830Y258625D01*
X104643Y260116D01*
X104658Y260161D01*
X104692Y260230D01*
X105199Y261850D01*
X105205Y261898D01*
X105224Y261972D01*
X105405Y263655D01*
X105430Y263853D01*
X105427Y263904D01*
X105431Y263995D01*
X105258Y265704D01*
X105245Y265750D01*
X105233Y265826D01*
X104730Y267468D01*
X104708Y267511D01*
X104682Y267583D01*
X103868Y269096D01*
X103838Y269133D01*
X103798Y269199D01*
X102705Y270523D01*
X102668Y270555D01*
X102617Y270611D01*
X101286Y271697D01*
X101243Y271720D01*
X101182Y271766D01*
X99665Y272571D01*
X99619Y272586D01*
X99550Y272618D01*
X98697Y272874D01*
X97904Y273112D01*
X97857Y273118D01*
X97782Y273136D01*
X96195Y273288D01*
X96178Y273295D01*
X96084Y273336D01*
X96074Y273336D01*
X96066Y273340D01*
X95879Y273351D01*
X94200Y273198D01*
X94153Y273185D01*
X94078Y273175D01*
X92461Y272697D01*
X92418Y272676D01*
X92346Y272651D01*
X90854Y271867D01*
X90816Y271837D01*
X90750Y271799D01*
X89439Y270739D01*
X89408Y270703D01*
X89351Y270652D01*
X88272Y269357D01*
X88248Y269315D01*
X88202Y269254D01*
X87396Y267773D01*
X87381Y267728D01*
X87348Y267659D01*
X86847Y266050D01*
X86841Y266002D01*
X86822Y265928D01*
X86647Y264275D01*
X86600Y264019D01*
X86600Y263997D01*
X86593Y263837D01*
X86778Y262120D01*
X86791Y262073D01*
X86803Y261998D01*
X87319Y260349D01*
X87341Y260306D01*
X87367Y260235D01*
X88195Y258718D01*
X88225Y258680D01*
X88265Y258615D01*
X89373Y257289D01*
X89409Y257258D01*
X89461Y257202D01*
X90806Y256118D01*
X90848Y256095D01*
X90910Y256049D01*
X92441Y255248D01*
X92487Y255234D01*
X92556Y255202D01*
X94213Y254714D01*
X94261Y254709D01*
X94336Y254691D01*
X95804Y254559D01*
X95832Y254543D01*
X95871Y254537D01*
X95908Y254522D01*
X96004Y254517D01*
X96054Y254509D01*
X96074Y254513D01*
G37*
D10*
X-177800Y736600D03*
X533400Y736600D03*
X444500Y215900D03*
X0Y215900D03*
D11*
X444500Y508000D03*
X342900Y508000D03*
D12*
X287800Y506000D03*
X287800Y486000D03*
X287800Y466000D03*
X287800Y446000D03*
X287800Y426000D03*
X287800Y406000D03*
X287800Y386000D03*
X287800Y366000D03*
X287800Y346000D03*
D13*
X287800Y326000D03*
D12*
X67800Y506000D03*
X67800Y486000D03*
X67800Y466000D03*
X67800Y446000D03*
X67800Y426000D03*
X67800Y406000D03*
X67800Y386000D03*
X67800Y366000D03*
X67800Y346000D03*
X67800Y326000D03*
D14*
X348996Y469950D02*
X362204Y469950D01*
X362204Y444550D02*
X348996Y444550D01*
X348996Y317550D02*
X362204Y317550D01*
X425196Y317550D02*
X438404Y317550D01*
X362204Y419150D02*
X348996Y419150D01*
X348996Y393750D02*
X362204Y393750D01*
X362204Y342950D02*
X348996Y342950D01*
X348996Y368350D02*
X362204Y368350D01*
X425196Y342950D02*
X438404Y342950D01*
X438404Y368350D02*
X425196Y368350D01*
X425196Y393750D02*
X438404Y393750D01*
X438404Y419150D02*
X425196Y419150D01*
X425196Y444550D02*
X438404Y444550D01*
X438404Y469950D02*
X425196Y469950D01*
X362204Y241350D02*
X348996Y241350D01*
X348996Y266750D02*
X362204Y266750D01*
X362204Y292150D02*
X348996Y292150D01*
X425196Y241350D02*
X438404Y241350D01*
X438404Y266750D02*
X425196Y266750D01*
X425196Y292150D02*
X438404Y292150D01*
D15*
X-177800Y622300D03*
X-76200Y622300D03*
X-177800Y596900D03*
X-76200Y596900D03*
D16*
X-50800Y549275D03*
X-50800Y568325D03*
X-25400Y549275D03*
X-25400Y568325D03*
X0Y549275D03*
X0Y568325D03*
D15*
X25400Y622300D03*
X127000Y622300D03*
X25400Y596900D03*
X127000Y596900D03*
D16*
X152400Y549275D03*
X152400Y568325D03*
X177800Y549275D03*
X177800Y568325D03*
X203200Y549275D03*
X203200Y568325D03*
D15*
X228600Y622300D03*
X330200Y622300D03*
X228600Y596900D03*
X330200Y596900D03*
D16*
X355600Y549275D03*
X355600Y568325D03*
X381000Y549275D03*
X381000Y568325D03*
X406400Y549275D03*
X406400Y568325D03*
D14*
X-69596Y469950D02*
X-82804Y469950D01*
X-82804Y444550D02*
X-69596Y444550D01*
X-69596Y317550D02*
X-82804Y317550D01*
X-6604Y317550D02*
X6604Y317550D01*
X-69596Y419150D02*
X-82804Y419150D01*
X-82804Y393750D02*
X-69596Y393750D01*
X-69596Y342950D02*
X-82804Y342950D01*
X-82804Y368350D02*
X-69596Y368350D01*
X-6604Y342950D02*
X6604Y342950D01*
X6604Y368350D02*
X-6604Y368350D01*
X-6604Y393750D02*
X6604Y393750D01*
X6604Y419150D02*
X-6604Y419150D01*
X-6604Y444550D02*
X6604Y444550D01*
X6604Y469950D02*
X-6604Y469950D01*
X-69596Y241350D02*
X-82804Y241350D01*
X-82804Y266750D02*
X-69596Y266750D01*
X-69596Y292150D02*
X-82804Y292150D01*
X-6604Y241350D02*
X6604Y241350D01*
X6604Y266750D02*
X-6604Y266750D01*
X-6604Y292150D02*
X6604Y292150D01*
D15*
X-88900Y508000D03*
X12700Y508000D03*
D16*
X38100Y485775D03*
X38100Y504825D03*
D17*
X-152400Y508000D03*
X-127000Y508000D03*
X-152400Y482600D03*
X-127000Y482600D03*
X-152400Y457200D03*
X-127000Y457200D03*
X-152400Y431800D03*
X-127000Y431800D03*
X-152400Y406400D03*
X-127000Y406400D03*
X-152400Y381000D03*
X-127000Y381000D03*
X-152400Y355600D03*
X-127000Y355600D03*
X-152400Y330200D03*
X-127000Y330200D03*
X-152400Y304800D03*
X-127000Y304800D03*
X-152400Y279400D03*
X-127000Y279400D03*
D18*
X508000Y228600D03*
X482600Y228600D03*
X508000Y254000D03*
X482600Y254000D03*
X508000Y279400D03*
X482600Y279400D03*
X508000Y304800D03*
X482600Y304800D03*
X508000Y330200D03*
X482600Y330200D03*
X508000Y355600D03*
X482600Y355600D03*
X508000Y381000D03*
X482600Y381000D03*
X508000Y406400D03*
X482600Y406400D03*
X508000Y431800D03*
X482600Y431800D03*
X508000Y457200D03*
X482600Y457200D03*
D19*
X190500Y235712D02*
X190500Y221488D01*
X165100Y221488D02*
X165100Y235712D01*
D16*
X317500Y485775D03*
X317500Y504825D03*
D17*
X-152400Y254000D03*
X-127000Y254000D03*
X-152400Y228600D03*
X-127000Y228600D03*
D18*
X508000Y482600D03*
X482600Y482600D03*
X508000Y508000D03*
X482600Y508000D03*
D11*
X127000Y571500D03*
X25400Y571500D03*
X127000Y546100D03*
X25400Y546100D03*
X330200Y546100D03*
X228600Y546100D03*
X330200Y571500D03*
X228600Y571500D03*
X-76200Y571500D03*
X-177800Y571500D03*
X-76200Y546100D03*
X-177800Y546100D03*
D18*
X508000Y558800D03*
X482600Y558800D03*
X508000Y584200D03*
X482600Y584200D03*
X508000Y609600D03*
X482600Y609600D03*
X482600Y635000D03*
X508000Y635000D03*
D16*
X317500Y307975D03*
X317500Y327025D03*
D20*
X465100Y711200D03*
X500100Y711200D03*
X-144500Y711200D03*
X-109500Y711200D03*
X58700Y711200D03*
X93700Y711200D03*
X261900Y711200D03*
X296900Y711200D03*
D19*
X-101600Y667512D02*
X-101600Y653288D01*
X-127000Y653288D02*
X-127000Y667512D01*
X-152400Y667512D02*
X-152400Y653288D01*
X101600Y653288D02*
X101600Y667512D01*
X76200Y667512D02*
X76200Y653288D01*
X50800Y653288D02*
X50800Y667512D01*
X304800Y667512D02*
X304800Y653288D01*
X279400Y653288D02*
X279400Y667512D01*
X254000Y667512D02*
X254000Y653288D01*
D21*
X190500Y292100D03*
X444500Y571500D03*
M02*
