M48
;GenerationSoftware,Autodesk,EAGLE,9.2.2*%
;CreationDate,2018-11-12T22:25:15Z*%
FMAT,2
ICI,OFF
METRIC,TZ,000.000
T8C0.350
T7C0.610
T6C0.700
T5C0.813
T4C0.914
T3C1.000
T2C1.016
T1C1.100
%
G90
M71
T1
X46510Y71120
X50010Y71120
X-14450Y71120
X-10950Y71120
X5870Y71120
X29690Y71120
X26190Y71120
X9370Y71120
T2
X9601Y21869
X3099Y21869
X9601Y26391
X3099Y26391
X32461Y21869
X25959Y21869
X32461Y26391
X25959Y26391
T3
X-17780Y73660
X53340Y73660
X44450Y21590
X0Y21590
T4
X-10160Y66040
X-12700Y66040
X-15240Y66040
X10160Y66040
X7620Y66040
X50800Y63500
X48260Y63500
X48260Y60960
X50800Y60960
X48260Y58420
X50800Y58420
X48260Y55880
X50800Y55880
X48260Y50800
X50800Y50800
X48260Y48260
X50800Y48260
X-12700Y22860
X-15240Y22860
X-12700Y25400
X-15240Y25400
X16510Y22860
X19050Y22860
X25400Y66040
X50800Y45720
X48260Y43180
X50800Y43180
X48260Y40640
X50800Y40640
X48260Y38100
X50800Y38100
X48260Y35560
X50800Y35560
X48260Y33020
X50800Y33020
X48260Y30480
X50800Y30480
X48260Y27940
X50800Y27940
X48260Y25400
X50800Y25400
X48260Y22860
X50800Y22860
X-12700Y27940
X-15240Y27940
X-12700Y30480
X-15240Y30480
X-12700Y33020
X-15240Y33020
X-12700Y35560
X-15240Y35560
X-12700Y38100
X-15240Y38100
X-12700Y40640
X-15240Y40640
X-12700Y43180
X-15240Y43180
X-12700Y45720
X-15240Y45720
X-12700Y48260
X-15240Y48260
X-12700Y50800
X-15240Y50800
X5080Y66040
X30480Y66040
X27940Y66040
X48260Y45720
T5
X-7620Y39375
X-7620Y34295
X-7620Y36835
X0Y34295
X0Y36835
X0Y39375
X0Y41915
X0Y44455
X0Y46995
X-7620Y24135
X-7620Y26675
X-7620Y29215
X0Y24135
X0Y26675
X0Y29215
X-7620Y41915
X0Y31755
X-7620Y31755
X-7620Y44455
X-8890Y50800
X1270Y50800
X44450Y50800
X34290Y50800
X-7620Y46995
X35560Y46995
X-17780Y54610
X-7620Y54610
X-17780Y57150
X-7620Y57150
X22860Y57150
X33020Y59690
X22860Y59690
X33020Y62230
X22860Y62230
X33020Y57150
X22860Y54610
X33020Y54610
X2540Y54610
X12700Y54610
X2540Y57150
X12700Y59690
X2540Y59690
X12700Y62230
X2540Y62230
X12700Y57150
X35560Y44455
X35560Y31755
X43180Y31755
X35560Y41915
X35560Y39375
X-7620Y59690
X-17780Y59690
X-7620Y62230
X-17780Y62230
X43180Y29215
X43180Y26675
X43180Y24135
X35560Y29215
X35560Y26675
X35560Y24135
X43180Y46995
X43180Y44455
X43180Y41915
X43180Y39375
X43180Y36835
X35560Y34295
X35560Y36835
X43180Y34295
T6
X6780Y38600
X28780Y50600
X28780Y48600
X28780Y46600
X28780Y44600
X28780Y42600
X28780Y40600
X28780Y38600
X28780Y36600
X28780Y34600
X28780Y32600
X6780Y50600
X6780Y48600
X6780Y46600
X6780Y44600
X6780Y42600
X6780Y40600
X6780Y36600
X6780Y34600
X6780Y32600
T7
X40640Y56832
X40640Y54927
X38100Y56832
X31750Y50482
X38100Y54927
X35560Y56832
X35560Y54927
X31750Y30797
X31750Y32702
X20320Y56832
X20320Y54927
X17780Y56832
X17780Y54927
X15240Y56832
X15240Y54927
X0Y56832
X0Y54927
X-2540Y56832
X-2540Y54927
X-5080Y56832
X-5080Y54927
X31750Y48577
X3810Y50482
X3810Y48577
T8
X44450Y57150
X19050Y29210
M30