G04 EAGLE Gerber RS-274X export*
G75*
%MOMM*%
%FSLAX34Y34*%
%LPD*%
%IN*%
%IPPOS*%
%AMOC8*
5,1,8,0,0,1.08239X$1,22.5*%
G01*
%ADD10C,0.254000*%


D10*
X-203200Y190500D02*
X558600Y190500D01*
X558600Y771400D01*
X-203200Y771400D01*
X-203200Y190500D01*
X-172800Y736319D02*
X-172863Y735761D01*
X-172988Y735214D01*
X-173173Y734684D01*
X-173417Y734178D01*
X-173716Y733702D01*
X-174066Y733263D01*
X-174463Y732866D01*
X-174902Y732516D01*
X-175378Y732217D01*
X-175884Y731973D01*
X-176414Y731788D01*
X-176961Y731663D01*
X-177519Y731600D01*
X-178081Y731600D01*
X-178639Y731663D01*
X-179186Y731788D01*
X-179716Y731973D01*
X-180222Y732217D01*
X-180698Y732516D01*
X-181137Y732866D01*
X-181534Y733263D01*
X-181884Y733702D01*
X-182183Y734178D01*
X-182427Y734684D01*
X-182612Y735214D01*
X-182737Y735761D01*
X-182800Y736319D01*
X-182800Y736881D01*
X-182737Y737439D01*
X-182612Y737986D01*
X-182427Y738516D01*
X-182183Y739022D01*
X-181884Y739498D01*
X-181534Y739937D01*
X-181137Y740334D01*
X-180698Y740684D01*
X-180222Y740983D01*
X-179716Y741227D01*
X-179186Y741412D01*
X-178639Y741537D01*
X-178081Y741600D01*
X-177519Y741600D01*
X-176961Y741537D01*
X-176414Y741412D01*
X-175884Y741227D01*
X-175378Y740983D01*
X-174902Y740684D01*
X-174463Y740334D01*
X-174066Y739937D01*
X-173716Y739498D01*
X-173417Y739022D01*
X-173173Y738516D01*
X-172988Y737986D01*
X-172863Y737439D01*
X-172800Y736881D01*
X-172800Y736319D01*
X538400Y736319D02*
X538337Y735761D01*
X538212Y735214D01*
X538027Y734684D01*
X537783Y734178D01*
X537484Y733702D01*
X537134Y733263D01*
X536737Y732866D01*
X536298Y732516D01*
X535822Y732217D01*
X535316Y731973D01*
X534786Y731788D01*
X534239Y731663D01*
X533681Y731600D01*
X533119Y731600D01*
X532561Y731663D01*
X532014Y731788D01*
X531484Y731973D01*
X530978Y732217D01*
X530502Y732516D01*
X530063Y732866D01*
X529666Y733263D01*
X529316Y733702D01*
X529017Y734178D01*
X528773Y734684D01*
X528588Y735214D01*
X528463Y735761D01*
X528400Y736319D01*
X528400Y736881D01*
X528463Y737439D01*
X528588Y737986D01*
X528773Y738516D01*
X529017Y739022D01*
X529316Y739498D01*
X529666Y739937D01*
X530063Y740334D01*
X530502Y740684D01*
X530978Y740983D01*
X531484Y741227D01*
X532014Y741412D01*
X532561Y741537D01*
X533119Y741600D01*
X533681Y741600D01*
X534239Y741537D01*
X534786Y741412D01*
X535316Y741227D01*
X535822Y740983D01*
X536298Y740684D01*
X536737Y740334D01*
X537134Y739937D01*
X537484Y739498D01*
X537783Y739022D01*
X538027Y738516D01*
X538212Y737986D01*
X538337Y737439D01*
X538400Y736881D01*
X538400Y736319D01*
X449500Y215619D02*
X449437Y215061D01*
X449312Y214514D01*
X449127Y213984D01*
X448883Y213478D01*
X448584Y213002D01*
X448234Y212563D01*
X447837Y212166D01*
X447398Y211816D01*
X446922Y211517D01*
X446416Y211273D01*
X445886Y211088D01*
X445339Y210963D01*
X444781Y210900D01*
X444219Y210900D01*
X443661Y210963D01*
X443114Y211088D01*
X442584Y211273D01*
X442078Y211517D01*
X441602Y211816D01*
X441163Y212166D01*
X440766Y212563D01*
X440416Y213002D01*
X440117Y213478D01*
X439873Y213984D01*
X439688Y214514D01*
X439563Y215061D01*
X439500Y215619D01*
X439500Y216181D01*
X439563Y216739D01*
X439688Y217286D01*
X439873Y217816D01*
X440117Y218322D01*
X440416Y218798D01*
X440766Y219237D01*
X441163Y219634D01*
X441602Y219984D01*
X442078Y220283D01*
X442584Y220527D01*
X443114Y220712D01*
X443661Y220837D01*
X444219Y220900D01*
X444781Y220900D01*
X445339Y220837D01*
X445886Y220712D01*
X446416Y220527D01*
X446922Y220283D01*
X447398Y219984D01*
X447837Y219634D01*
X448234Y219237D01*
X448584Y218798D01*
X448883Y218322D01*
X449127Y217816D01*
X449312Y217286D01*
X449437Y216739D01*
X449500Y216181D01*
X449500Y215619D01*
X5000Y215619D02*
X4937Y215061D01*
X4812Y214514D01*
X4627Y213984D01*
X4383Y213478D01*
X4084Y213002D01*
X3734Y212563D01*
X3337Y212166D01*
X2898Y211816D01*
X2422Y211517D01*
X1916Y211273D01*
X1386Y211088D01*
X839Y210963D01*
X281Y210900D01*
X-281Y210900D01*
X-839Y210963D01*
X-1386Y211088D01*
X-1916Y211273D01*
X-2422Y211517D01*
X-2898Y211816D01*
X-3337Y212166D01*
X-3734Y212563D01*
X-4084Y213002D01*
X-4383Y213478D01*
X-4627Y213984D01*
X-4812Y214514D01*
X-4937Y215061D01*
X-5000Y215619D01*
X-5000Y216181D01*
X-4937Y216739D01*
X-4812Y217286D01*
X-4627Y217816D01*
X-4383Y218322D01*
X-4084Y218798D01*
X-3734Y219237D01*
X-3337Y219634D01*
X-2898Y219984D01*
X-2422Y220283D01*
X-1916Y220527D01*
X-1386Y220712D01*
X-839Y220837D01*
X-281Y220900D01*
X281Y220900D01*
X839Y220837D01*
X1386Y220712D01*
X1916Y220527D01*
X2422Y220283D01*
X2898Y219984D01*
X3337Y219634D01*
X3734Y219237D01*
X4084Y218798D01*
X4383Y218322D01*
X4627Y217816D01*
X4812Y217286D01*
X4937Y216739D01*
X5000Y216181D01*
X5000Y215619D01*
M02*
